<mxfile host="www.draw.io" modified="2019-10-23T10:42:21.962Z" agent="Mozilla/5.0 (X11; Ubuntu; Linux x86_64; rv:69.0) Gecko/20100101 Firefox/69.0" etag="tsWj6bSPqmLSUhLf_O0j" version="12.1.3" type="github" pages="1">
  <diagram id="bHH_VU6DtPvdEncuLsnU" name="Page-1">
    <mxGraphModel dx="1408" dy="766" grid="1" gridSize="10" guides="1" tooltips="1" connect="1" arrows="1" fold="1" page="1" pageScale="1" pageWidth="827" pageHeight="1169" math="0" shadow="0">
      <root>
        <mxCell id="0"/>
        <mxCell id="1" parent="0"/>
        <mxCell id="pH46Mv9pMWWulA1nh_S1-31" value="Eingabedaten" style="shape=umlFrame;whiteSpace=wrap;html=1;width=108;height=44;" parent="1" vertex="1">
          <mxGeometry x="82" y="336" width="658" height="200" as="geometry"/>
        </mxCell>
        <mxCell id="pH46Mv9pMWWulA1nh_S1-28" value="Files" style="shape=umlFrame;whiteSpace=wrap;html=1;" parent="1" vertex="1">
          <mxGeometry x="10" y="270" width="800" height="850" as="geometry"/>
        </mxCell>
        <mxCell id="pH46Mv9pMWWulA1nh_S1-2" value="duty-types.json" style="swimlane;fontStyle=0;childLayout=stackLayout;horizontal=1;startSize=26;fillColor=none;horizontalStack=0;resizeParent=1;resizeParentMax=0;resizeLast=0;collapsible=1;marginBottom=0;strokeColor=#000000;" parent="1" vertex="1" collapsed="1">
          <mxGeometry x="440" y="369" width="150" height="26" as="geometry">
            <mxRectangle x="570" y="370" width="140" height="52" as="alternateBounds"/>
          </mxGeometry>
        </mxCell>
        <mxCell id="pH46Mv9pMWWulA1nh_S1-3" value="Diensttypen" style="text;strokeColor=none;fillColor=none;align=left;verticalAlign=top;spacingLeft=4;spacingRight=4;overflow=hidden;rotatable=0;points=[[0,0.5],[1,0.5]];portConstraint=eastwest;" parent="pH46Mv9pMWWulA1nh_S1-2" vertex="1">
          <mxGeometry y="26" width="150" height="26" as="geometry"/>
        </mxCell>
        <mxCell id="5t1zPth6NVCjsXj3nBUX-1" style="edgeStyle=orthogonalEdgeStyle;rounded=0;orthogonalLoop=1;jettySize=auto;html=1;exitX=0.5;exitY=1;exitDx=0;exitDy=0;exitPerimeter=0;entryX=0.204;entryY=0.002;entryDx=0;entryDy=0;entryPerimeter=0;fontColor=#000000;" edge="1" parent="1" source="pH46Mv9pMWWulA1nh_S1-11" target="pH46Mv9pMWWulA1nh_S1-28">
          <mxGeometry relative="1" as="geometry"/>
        </mxCell>
        <mxCell id="pH46Mv9pMWWulA1nh_S1-11" value="Mo-Fr (Ferien)" style="shape=note;whiteSpace=wrap;size=16;html=1;" parent="1" vertex="1">
          <mxGeometry x="130" y="150" width="80" height="90" as="geometry"/>
        </mxCell>
        <mxCell id="pH46Mv9pMWWulA1nh_S1-12" value="" style="html=1;shape=singleArrow;arrowWidth=0.4;arrowSize=0.4;outlineConnect=0;" parent="pH46Mv9pMWWulA1nh_S1-11" vertex="1">
          <mxGeometry width="14" height="14" relative="1" as="geometry">
            <mxPoint x="2" y="2" as="offset"/>
          </mxGeometry>
        </mxCell>
        <mxCell id="pH46Mv9pMWWulA1nh_S1-13" value="" style="html=1;whiteSpace=wrap;shape=parallelMarker;outlineConnect=0;" parent="pH46Mv9pMWWulA1nh_S1-11" vertex="1">
          <mxGeometry x="0.5" y="1" width="14" height="14" relative="1" as="geometry">
            <mxPoint x="-7" y="-14" as="offset"/>
          </mxGeometry>
        </mxCell>
        <mxCell id="pH46Mv9pMWWulA1nh_S1-14" value="Dueren_opti" style="shape=datastore;whiteSpace=wrap;html=1;" parent="1" vertex="1">
          <mxGeometry x="310" y="20" width="90" height="90" as="geometry"/>
        </mxCell>
        <mxCell id="pH46Mv9pMWWulA1nh_S1-15" value="" style="html=1;shape=mxgraph.flowchart.annotation_2;align=left;labelPosition=right;rotation=90;" parent="1" vertex="1">
          <mxGeometry x="332" y="-101" width="50" height="483" as="geometry"/>
        </mxCell>
        <mxCell id="pH46Mv9pMWWulA1nh_S1-16" value="Mo-Fr (Ferien)" style="shape=note;whiteSpace=wrap;size=16;html=1;" parent="1" vertex="1">
          <mxGeometry x="253" y="150" width="80" height="90" as="geometry"/>
        </mxCell>
        <mxCell id="pH46Mv9pMWWulA1nh_S1-17" value="" style="html=1;shape=singleArrow;arrowWidth=0.4;arrowSize=0.4;outlineConnect=0;" parent="pH46Mv9pMWWulA1nh_S1-16" vertex="1">
          <mxGeometry width="14" height="14" relative="1" as="geometry">
            <mxPoint x="2" y="2" as="offset"/>
          </mxGeometry>
        </mxCell>
        <mxCell id="pH46Mv9pMWWulA1nh_S1-18" value="" style="html=1;whiteSpace=wrap;shape=parallelMarker;outlineConnect=0;" parent="pH46Mv9pMWWulA1nh_S1-16" vertex="1">
          <mxGeometry x="0.5" y="1" width="14" height="14" relative="1" as="geometry">
            <mxPoint x="-7" y="-14" as="offset"/>
          </mxGeometry>
        </mxCell>
        <mxCell id="5t1zPth6NVCjsXj3nBUX-2" style="edgeStyle=orthogonalEdgeStyle;rounded=0;orthogonalLoop=1;jettySize=auto;html=1;exitX=0.75;exitY=1;exitDx=0;exitDy=0;entryX=0.354;entryY=0.001;entryDx=0;entryDy=0;entryPerimeter=0;fontColor=#000000;" edge="1" parent="pH46Mv9pMWWulA1nh_S1-16" source="pH46Mv9pMWWulA1nh_S1-18" target="pH46Mv9pMWWulA1nh_S1-28">
          <mxGeometry relative="1" as="geometry"/>
        </mxCell>
        <mxCell id="5t1zPth6NVCjsXj3nBUX-3" style="edgeStyle=orthogonalEdgeStyle;rounded=0;orthogonalLoop=1;jettySize=auto;html=1;exitX=0.5;exitY=1;exitDx=0;exitDy=0;exitPerimeter=0;entryX=0.503;entryY=-0.001;entryDx=0;entryDy=0;entryPerimeter=0;fontColor=#000000;" edge="1" parent="1" source="pH46Mv9pMWWulA1nh_S1-19" target="pH46Mv9pMWWulA1nh_S1-28">
          <mxGeometry relative="1" as="geometry"/>
        </mxCell>
        <mxCell id="pH46Mv9pMWWulA1nh_S1-19" value="Samstag" style="shape=note;whiteSpace=wrap;size=16;html=1;" parent="1" vertex="1">
          <mxGeometry x="370" y="150" width="80" height="90" as="geometry"/>
        </mxCell>
        <mxCell id="pH46Mv9pMWWulA1nh_S1-20" value="" style="html=1;shape=singleArrow;arrowWidth=0.4;arrowSize=0.4;outlineConnect=0;" parent="pH46Mv9pMWWulA1nh_S1-19" vertex="1">
          <mxGeometry width="14" height="14" relative="1" as="geometry">
            <mxPoint x="2" y="2" as="offset"/>
          </mxGeometry>
        </mxCell>
        <mxCell id="pH46Mv9pMWWulA1nh_S1-21" value="" style="html=1;whiteSpace=wrap;shape=parallelMarker;outlineConnect=0;" parent="pH46Mv9pMWWulA1nh_S1-19" vertex="1">
          <mxGeometry x="0.5" y="1" width="14" height="14" relative="1" as="geometry">
            <mxPoint x="-7" y="-14" as="offset"/>
          </mxGeometry>
        </mxCell>
        <mxCell id="pH46Mv9pMWWulA1nh_S1-22" value="Sonntag" style="shape=note;whiteSpace=wrap;size=16;html=1;" parent="1" vertex="1">
          <mxGeometry x="500" y="150" width="80" height="90" as="geometry"/>
        </mxCell>
        <mxCell id="pH46Mv9pMWWulA1nh_S1-23" value="" style="html=1;shape=singleArrow;arrowWidth=0.4;arrowSize=0.4;outlineConnect=0;" parent="pH46Mv9pMWWulA1nh_S1-22" vertex="1">
          <mxGeometry width="14" height="14" relative="1" as="geometry">
            <mxPoint x="2" y="2" as="offset"/>
          </mxGeometry>
        </mxCell>
        <mxCell id="pH46Mv9pMWWulA1nh_S1-24" value="" style="html=1;whiteSpace=wrap;shape=parallelMarker;outlineConnect=0;" parent="pH46Mv9pMWWulA1nh_S1-22" vertex="1">
          <mxGeometry x="0.5" y="1" width="14" height="14" relative="1" as="geometry">
            <mxPoint x="-7" y="-14" as="offset"/>
          </mxGeometry>
        </mxCell>
        <mxCell id="5t1zPth6NVCjsXj3nBUX-4" style="edgeStyle=orthogonalEdgeStyle;rounded=0;orthogonalLoop=1;jettySize=auto;html=1;exitX=0.5;exitY=1;exitDx=0;exitDy=0;entryX=0.663;entryY=0;entryDx=0;entryDy=0;entryPerimeter=0;fontColor=#000000;" edge="1" parent="pH46Mv9pMWWulA1nh_S1-22" source="pH46Mv9pMWWulA1nh_S1-24" target="pH46Mv9pMWWulA1nh_S1-28">
          <mxGeometry relative="1" as="geometry"/>
        </mxCell>
        <mxCell id="pH46Mv9pMWWulA1nh_S1-32" value="objective-factors.json" style="swimlane;fontStyle=0;childLayout=stackLayout;horizontal=1;startSize=26;fillColor=none;horizontalStack=0;resizeParent=1;resizeParentMax=0;resizeLast=0;collapsible=1;marginBottom=0;strokeColor=#000000;" parent="1" vertex="1" collapsed="1">
          <mxGeometry x="220" y="395" width="150" height="26" as="geometry">
            <mxRectangle x="500" y="450" width="140" height="52" as="alternateBounds"/>
          </mxGeometry>
        </mxCell>
        <mxCell id="pH46Mv9pMWWulA1nh_S1-33" value="Kostenfaktoren" style="text;strokeColor=none;fillColor=none;align=left;verticalAlign=top;spacingLeft=4;spacingRight=4;overflow=hidden;rotatable=0;points=[[0,0.5],[1,0.5]];portConstraint=eastwest;" parent="pH46Mv9pMWWulA1nh_S1-32" vertex="1">
          <mxGeometry y="26" width="150" height="26" as="geometry"/>
        </mxCell>
        <mxCell id="pH46Mv9pMWWulA1nh_S1-34" value="parameters.json" style="swimlane;fontStyle=0;childLayout=stackLayout;horizontal=1;startSize=26;fillColor=none;horizontalStack=0;resizeParent=1;resizeParentMax=0;resizeLast=0;collapsible=1;marginBottom=0;strokeColor=#000000;" parent="1" vertex="1" collapsed="1">
          <mxGeometry x="500" y="436" width="150" height="26" as="geometry">
            <mxRectangle x="382" y="370" width="140" height="52" as="alternateBounds"/>
          </mxGeometry>
        </mxCell>
        <mxCell id="pH46Mv9pMWWulA1nh_S1-35" value="Parameter" style="text;strokeColor=none;fillColor=none;align=left;verticalAlign=top;spacingLeft=4;spacingRight=4;overflow=hidden;rotatable=0;points=[[0,0.5],[1,0.5]];portConstraint=eastwest;" parent="pH46Mv9pMWWulA1nh_S1-34" vertex="1">
          <mxGeometry y="26" width="150" height="26" as="geometry"/>
        </mxCell>
        <mxCell id="pH46Mv9pMWWulA1nh_S1-68" style="edgeStyle=orthogonalEdgeStyle;rounded=0;orthogonalLoop=1;jettySize=auto;html=1;exitX=0.25;exitY=1;exitDx=0;exitDy=0;entryX=0.5;entryY=0;entryDx=0;entryDy=0;fontColor=#000000;" parent="1" source="pH46Mv9pMWWulA1nh_S1-41" target="pH46Mv9pMWWulA1nh_S1-57" edge="1">
          <mxGeometry relative="1" as="geometry"/>
        </mxCell>
        <mxCell id="pH46Mv9pMWWulA1nh_S1-91" style="edgeStyle=orthogonalEdgeStyle;rounded=0;orthogonalLoop=1;jettySize=auto;html=1;exitX=0.5;exitY=1;exitDx=0;exitDy=0;fontColor=#000000;" parent="1" source="pH46Mv9pMWWulA1nh_S1-41" target="pH46Mv9pMWWulA1nh_S1-69" edge="1">
          <mxGeometry relative="1" as="geometry"/>
        </mxCell>
        <mxCell id="pH46Mv9pMWWulA1nh_S1-92" style="edgeStyle=orthogonalEdgeStyle;rounded=0;orthogonalLoop=1;jettySize=auto;html=1;exitX=0.75;exitY=1;exitDx=0;exitDy=0;entryX=0.5;entryY=0;entryDx=0;entryDy=0;fontColor=#000000;" parent="1" source="pH46Mv9pMWWulA1nh_S1-41" target="pH46Mv9pMWWulA1nh_S1-80" edge="1">
          <mxGeometry relative="1" as="geometry"/>
        </mxCell>
        <mxCell id="pH46Mv9pMWWulA1nh_S1-93" style="edgeStyle=orthogonalEdgeStyle;rounded=0;orthogonalLoop=1;jettySize=auto;html=1;exitX=0.5;exitY=1;exitDx=0;exitDy=0;entryX=0.5;entryY=0;entryDx=0;entryDy=0;fontColor=#000000;" parent="1" source="pH46Mv9pMWWulA1nh_S1-41" target="pH46Mv9pMWWulA1nh_S1-57" edge="1">
          <mxGeometry relative="1" as="geometry"/>
        </mxCell>
        <mxCell id="pH46Mv9pMWWulA1nh_S1-41" value="timetable.txt" style="swimlane;fontStyle=0;childLayout=stackLayout;horizontal=1;startSize=26;fillColor=none;horizontalStack=0;resizeParent=1;resizeParentMax=0;resizeLast=0;collapsible=1;marginBottom=0;strokeColor=#000000;fontColor=#000000;" parent="1" vertex="1" collapsed="1">
          <mxGeometry x="290" y="477" width="110" height="26" as="geometry">
            <mxRectangle x="100" y="386" width="440" height="140" as="alternateBounds"/>
          </mxGeometry>
        </mxCell>
        <mxCell id="pH46Mv9pMWWulA1nh_S1-42" value="&#xa;&#xa;" style="text;strokeColor=none;fillColor=none;align=left;verticalAlign=top;spacingLeft=4;spacingRight=4;overflow=hidden;rotatable=0;points=[[0,0.5],[1,0.5]];portConstraint=eastwest;" parent="pH46Mv9pMWWulA1nh_S1-41" vertex="1">
          <mxGeometry y="26" width="110" height="114" as="geometry"/>
        </mxCell>
        <mxCell id="pH46Mv9pMWWulA1nh_S1-57" value="$STOPPOINT" style="swimlane;fontStyle=0;childLayout=stackLayout;horizontal=1;startSize=26;fillColor=#e0e0e0;horizontalStack=0;resizeParent=1;resizeParentMax=0;resizeLast=0;collapsible=1;marginBottom=0;swimlaneFillColor=#ffffff;align=center;fontSize=14;strokeColor=#000000;" parent="1" vertex="1">
          <mxGeometry x="60" y="600" width="252" height="380" as="geometry"/>
        </mxCell>
        <mxCell id="pH46Mv9pMWWulA1nh_S1-58" value="ID" style="shape=partialRectangle;top=0;left=0;right=0;bottom=1;align=left;verticalAlign=middle;fillColor=none;spacingLeft=34;spacingRight=4;overflow=hidden;rotatable=0;points=[[0,0.5],[1,0.5]];portConstraint=eastwest;dropTarget=0;fontStyle=5;fontSize=12;" parent="pH46Mv9pMWWulA1nh_S1-57" vertex="1">
          <mxGeometry y="26" width="252" height="30" as="geometry"/>
        </mxCell>
        <mxCell id="pH46Mv9pMWWulA1nh_S1-59" value="PK" style="shape=partialRectangle;top=0;left=0;bottom=0;fillColor=none;align=left;verticalAlign=middle;spacingLeft=4;spacingRight=4;overflow=hidden;rotatable=0;points=[];portConstraint=eastwest;part=1;fontSize=12;" parent="pH46Mv9pMWWulA1nh_S1-58" vertex="1" connectable="0">
          <mxGeometry width="30" height="30" as="geometry"/>
        </mxCell>
        <mxCell id="pH46Mv9pMWWulA1nh_S1-60" value="CODE" style="shape=partialRectangle;top=0;left=0;right=0;bottom=0;align=left;verticalAlign=top;fillColor=none;spacingLeft=34;spacingRight=4;overflow=hidden;rotatable=0;points=[[0,0.5],[1,0.5]];portConstraint=eastwest;dropTarget=0;fontSize=12;" parent="pH46Mv9pMWWulA1nh_S1-57" vertex="1">
          <mxGeometry y="56" width="252" height="26" as="geometry"/>
        </mxCell>
        <mxCell id="pH46Mv9pMWWulA1nh_S1-61" value="" style="shape=partialRectangle;top=0;left=0;bottom=0;fillColor=none;align=left;verticalAlign=top;spacingLeft=4;spacingRight=4;overflow=hidden;rotatable=0;points=[];portConstraint=eastwest;part=1;fontSize=12;" parent="pH46Mv9pMWWulA1nh_S1-60" vertex="1" connectable="0">
          <mxGeometry width="30" height="26" as="geometry"/>
        </mxCell>
        <mxCell id="pH46Mv9pMWWulA1nh_S1-62" value="NAME" style="shape=partialRectangle;top=0;left=0;right=0;bottom=0;align=left;verticalAlign=top;fillColor=none;spacingLeft=34;spacingRight=4;overflow=hidden;rotatable=0;points=[[0,0.5],[1,0.5]];portConstraint=eastwest;dropTarget=0;fontSize=12;" parent="pH46Mv9pMWWulA1nh_S1-57" vertex="1">
          <mxGeometry y="82" width="252" height="26" as="geometry"/>
        </mxCell>
        <mxCell id="pH46Mv9pMWWulA1nh_S1-63" value="" style="shape=partialRectangle;top=0;left=0;bottom=0;fillColor=none;align=left;verticalAlign=top;spacingLeft=4;spacingRight=4;overflow=hidden;rotatable=0;points=[];portConstraint=eastwest;part=1;fontSize=12;" parent="pH46Mv9pMWWulA1nh_S1-62" vertex="1" connectable="0">
          <mxGeometry width="30" height="26" as="geometry"/>
        </mxCell>
        <mxCell id="pH46Mv9pMWWulA1nh_S1-64" value="MEALPLACECAPACITY&#xa;&#xa;BREAKFACILITY&#xa;&#xa;DEPOT&#xa;&#xa;DRIVERBASE&#xa;&#xa;VEHICLECAPACITY&#xa;&#xa;TOTALVEHICLECAPACITY&#xa;&#xa;MAXSTANDINGTIME&#xa;&#xa;VEHICLECHANGEPROHIBITED&#xa;&#xa;UNGUARDEDPARKING&#xa;" style="shape=partialRectangle;top=0;left=0;right=0;bottom=0;align=left;verticalAlign=top;fillColor=none;spacingLeft=34;spacingRight=4;overflow=hidden;rotatable=0;points=[[0,0.5],[1,0.5]];portConstraint=eastwest;dropTarget=0;fontSize=12;" parent="pH46Mv9pMWWulA1nh_S1-57" vertex="1">
          <mxGeometry y="108" width="252" height="262" as="geometry"/>
        </mxCell>
        <mxCell id="pH46Mv9pMWWulA1nh_S1-65" value="" style="shape=partialRectangle;top=0;left=0;bottom=0;fillColor=none;align=left;verticalAlign=top;spacingLeft=4;spacingRight=4;overflow=hidden;rotatable=0;points=[];portConstraint=eastwest;part=1;fontSize=12;" parent="pH46Mv9pMWWulA1nh_S1-64" vertex="1" connectable="0">
          <mxGeometry width="30.5925308157451" height="262" as="geometry"/>
        </mxCell>
        <mxCell id="pH46Mv9pMWWulA1nh_S1-66" value="" style="shape=partialRectangle;top=0;left=0;right=0;bottom=0;align=left;verticalAlign=top;fillColor=none;spacingLeft=34;spacingRight=4;overflow=hidden;rotatable=0;points=[[0,0.5],[1,0.5]];portConstraint=eastwest;dropTarget=0;fontSize=12;" parent="pH46Mv9pMWWulA1nh_S1-57" vertex="1">
          <mxGeometry y="370" width="252" height="10" as="geometry"/>
        </mxCell>
        <mxCell id="pH46Mv9pMWWulA1nh_S1-67" value="" style="shape=partialRectangle;top=0;left=0;bottom=0;fillColor=none;align=left;verticalAlign=top;spacingLeft=4;spacingRight=4;overflow=hidden;rotatable=0;points=[];portConstraint=eastwest;part=1;fontSize=12;" parent="pH46Mv9pMWWulA1nh_S1-66" vertex="1" connectable="0">
          <mxGeometry width="30" height="10" as="geometry"/>
        </mxCell>
        <mxCell id="pH46Mv9pMWWulA1nh_S1-69" value="$SERVICEJOURNEY" style="swimlane;fontStyle=0;childLayout=stackLayout;horizontal=1;startSize=26;fillColor=#e0e0e0;horizontalStack=0;resizeParent=1;resizeParentMax=0;resizeLast=0;collapsible=1;marginBottom=0;swimlaneFillColor=#ffffff;align=center;fontSize=14;strokeColor=#000000;" parent="1" vertex="1">
          <mxGeometry x="333" y="600" width="230" height="500" as="geometry"/>
        </mxCell>
        <mxCell id="pH46Mv9pMWWulA1nh_S1-70" value="ID" style="shape=partialRectangle;top=0;left=0;right=0;bottom=1;align=left;verticalAlign=middle;fillColor=none;spacingLeft=34;spacingRight=4;overflow=hidden;rotatable=0;points=[[0,0.5],[1,0.5]];portConstraint=eastwest;dropTarget=0;fontStyle=5;fontSize=12;" parent="pH46Mv9pMWWulA1nh_S1-69" vertex="1">
          <mxGeometry y="26" width="230" height="30" as="geometry"/>
        </mxCell>
        <mxCell id="pH46Mv9pMWWulA1nh_S1-71" value="PK" style="shape=partialRectangle;top=0;left=0;bottom=0;fillColor=none;align=left;verticalAlign=middle;spacingLeft=4;spacingRight=4;overflow=hidden;rotatable=0;points=[];portConstraint=eastwest;part=1;fontSize=12;" parent="pH46Mv9pMWWulA1nh_S1-70" vertex="1" connectable="0">
          <mxGeometry width="30" height="30" as="geometry"/>
        </mxCell>
        <mxCell id="pH46Mv9pMWWulA1nh_S1-72" value="LINEID&#xa;&#xa;FROMSTOPID&#xa;&#xa;TOSTOPID&#xa;&#xa;DEPTIME&#xa;&#xa;ARRTIME&#xa;&#xa;MINAHEADTIME&#xa;&#xa;MINLAYOVERTIME&#xa;&#xa;VEHTYPEGROUPID&#xa;&#xa;MAXSHIFTEARLIER&#xa;&#xa;MAXSHIFTLATER&#xa;&#xa;FROMSTOPBREAKFACILITY&#xa;CODE&#xa;&#xa;BLOCKWISH&#xa;&#xa;WAITINGTIME&#xa;&#xa;RECOMMENDEDSHIFT&#xa;&#xa;DISTANCE&#xa;&#xa;&#xa;&#xa;&#xa;&#xa;&#xa;&#xa;" style="shape=partialRectangle;top=0;left=0;right=0;bottom=0;align=left;verticalAlign=top;fillColor=none;spacingLeft=34;spacingRight=4;overflow=hidden;rotatable=0;points=[[0,0.5],[1,0.5]];portConstraint=eastwest;dropTarget=0;fontSize=12;" parent="pH46Mv9pMWWulA1nh_S1-69" vertex="1">
          <mxGeometry y="56" width="230" height="434" as="geometry"/>
        </mxCell>
        <mxCell id="pH46Mv9pMWWulA1nh_S1-73" value="" style="shape=partialRectangle;top=0;left=0;bottom=0;fillColor=none;align=left;verticalAlign=top;spacingLeft=4;spacingRight=4;overflow=hidden;rotatable=0;points=[];portConstraint=eastwest;part=1;fontSize=12;" parent="pH46Mv9pMWWulA1nh_S1-72" vertex="1" connectable="0">
          <mxGeometry width="31.797235023041477" height="434" as="geometry"/>
        </mxCell>
        <mxCell id="pH46Mv9pMWWulA1nh_S1-78" value="" style="shape=partialRectangle;top=0;left=0;right=0;bottom=0;align=left;verticalAlign=top;fillColor=none;spacingLeft=34;spacingRight=4;overflow=hidden;rotatable=0;points=[[0,0.5],[1,0.5]];portConstraint=eastwest;dropTarget=0;fontSize=12;" parent="pH46Mv9pMWWulA1nh_S1-69" vertex="1">
          <mxGeometry y="490" width="230" height="10" as="geometry"/>
        </mxCell>
        <mxCell id="pH46Mv9pMWWulA1nh_S1-79" value="" style="shape=partialRectangle;top=0;left=0;bottom=0;fillColor=none;align=left;verticalAlign=top;spacingLeft=4;spacingRight=4;overflow=hidden;rotatable=0;points=[];portConstraint=eastwest;part=1;fontSize=12;" parent="pH46Mv9pMWWulA1nh_S1-78" vertex="1" connectable="0">
          <mxGeometry width="30" height="10" as="geometry"/>
        </mxCell>
        <mxCell id="pH46Mv9pMWWulA1nh_S1-80" value="$DEADRUNTIME" style="swimlane;fontStyle=0;childLayout=stackLayout;horizontal=1;startSize=26;fillColor=#e0e0e0;horizontalStack=0;resizeParent=1;resizeParentMax=0;resizeLast=0;collapsible=1;marginBottom=0;swimlaneFillColor=#ffffff;align=center;fontSize=14;strokeColor=#000000;" parent="1" vertex="1">
          <mxGeometry x="575" y="600" width="225" height="260" as="geometry"/>
        </mxCell>
        <mxCell id="pH46Mv9pMWWulA1nh_S1-81" value="ID" style="shape=partialRectangle;top=0;left=0;right=0;bottom=1;align=left;verticalAlign=middle;fillColor=none;spacingLeft=34;spacingRight=4;overflow=hidden;rotatable=0;points=[[0,0.5],[1,0.5]];portConstraint=eastwest;dropTarget=0;fontStyle=5;fontSize=12;" parent="pH46Mv9pMWWulA1nh_S1-80" vertex="1">
          <mxGeometry y="26" width="225" height="30" as="geometry"/>
        </mxCell>
        <mxCell id="pH46Mv9pMWWulA1nh_S1-82" value="PK" style="shape=partialRectangle;top=0;left=0;bottom=0;fillColor=none;align=left;verticalAlign=middle;spacingLeft=4;spacingRight=4;overflow=hidden;rotatable=0;points=[];portConstraint=eastwest;part=1;fontSize=12;" parent="pH46Mv9pMWWulA1nh_S1-81" vertex="1" connectable="0">
          <mxGeometry width="30" height="30" as="geometry"/>
        </mxCell>
        <mxCell id="pH46Mv9pMWWulA1nh_S1-83" value="FROMSTOPID" style="shape=partialRectangle;top=0;left=0;right=0;bottom=0;align=left;verticalAlign=top;fillColor=none;spacingLeft=34;spacingRight=4;overflow=hidden;rotatable=0;points=[[0,0.5],[1,0.5]];portConstraint=eastwest;dropTarget=0;fontSize=12;" parent="pH46Mv9pMWWulA1nh_S1-80" vertex="1">
          <mxGeometry y="56" width="225" height="26" as="geometry"/>
        </mxCell>
        <mxCell id="pH46Mv9pMWWulA1nh_S1-84" value="" style="shape=partialRectangle;top=0;left=0;bottom=0;fillColor=none;align=left;verticalAlign=top;spacingLeft=4;spacingRight=4;overflow=hidden;rotatable=0;points=[];portConstraint=eastwest;part=1;fontSize=12;" parent="pH46Mv9pMWWulA1nh_S1-83" vertex="1" connectable="0">
          <mxGeometry width="30" height="26" as="geometry"/>
        </mxCell>
        <mxCell id="pH46Mv9pMWWulA1nh_S1-85" value="TOSTOPID" style="shape=partialRectangle;top=0;left=0;right=0;bottom=0;align=left;verticalAlign=top;fillColor=none;spacingLeft=34;spacingRight=4;overflow=hidden;rotatable=0;points=[[0,0.5],[1,0.5]];portConstraint=eastwest;dropTarget=0;fontSize=12;" parent="pH46Mv9pMWWulA1nh_S1-80" vertex="1">
          <mxGeometry y="82" width="225" height="26" as="geometry"/>
        </mxCell>
        <mxCell id="pH46Mv9pMWWulA1nh_S1-86" value="" style="shape=partialRectangle;top=0;left=0;bottom=0;fillColor=none;align=left;verticalAlign=top;spacingLeft=4;spacingRight=4;overflow=hidden;rotatable=0;points=[];portConstraint=eastwest;part=1;fontSize=12;" parent="pH46Mv9pMWWulA1nh_S1-85" vertex="1" connectable="0">
          <mxGeometry width="30" height="26" as="geometry"/>
        </mxCell>
        <mxCell id="pH46Mv9pMWWulA1nh_S1-87" value="FROMTIME" style="shape=partialRectangle;top=0;left=0;right=0;bottom=0;align=left;verticalAlign=top;fillColor=none;spacingLeft=34;spacingRight=4;overflow=hidden;rotatable=0;points=[[0,0.5],[1,0.5]];portConstraint=eastwest;dropTarget=0;fontSize=12;" parent="pH46Mv9pMWWulA1nh_S1-80" vertex="1">
          <mxGeometry y="108" width="225" height="26" as="geometry"/>
        </mxCell>
        <mxCell id="pH46Mv9pMWWulA1nh_S1-88" value="" style="shape=partialRectangle;top=0;left=0;bottom=0;fillColor=none;align=left;verticalAlign=top;spacingLeft=4;spacingRight=4;overflow=hidden;rotatable=0;points=[];portConstraint=eastwest;part=1;fontSize=12;" parent="pH46Mv9pMWWulA1nh_S1-87" vertex="1" connectable="0">
          <mxGeometry width="30" height="26" as="geometry"/>
        </mxCell>
        <mxCell id="pH46Mv9pMWWulA1nh_S1-89" value="TOTIME&#xa;&#xa;DISTANCE&#xa;&#xa;RUNTIME&#xa;&#xa;SOURCE&#xa;" style="shape=partialRectangle;top=0;left=0;right=0;bottom=0;align=left;verticalAlign=top;fillColor=none;spacingLeft=34;spacingRight=4;overflow=hidden;rotatable=0;points=[[0,0.5],[1,0.5]];portConstraint=eastwest;dropTarget=0;fontSize=12;" parent="pH46Mv9pMWWulA1nh_S1-80" vertex="1">
          <mxGeometry y="134" width="225" height="126" as="geometry"/>
        </mxCell>
        <mxCell id="pH46Mv9pMWWulA1nh_S1-90" value="" style="shape=partialRectangle;top=0;left=0;bottom=0;fillColor=none;align=left;verticalAlign=top;spacingLeft=4;spacingRight=4;overflow=hidden;rotatable=0;points=[];portConstraint=eastwest;part=1;fontSize=12;" parent="pH46Mv9pMWWulA1nh_S1-89" vertex="1" connectable="0">
          <mxGeometry width="30" height="126" as="geometry"/>
        </mxCell>
      </root>
    </mxGraphModel>
  </diagram>
</mxfile>
